<svg width="150" height="150" viewBox="0 0 150 150" fill="none" xmlns="http://www.w3.org/2000/svg">
<mask id="mask0_2:14" style="mask-type:alpha" maskUnits="userSpaceOnUse" x="14" y="25" width="120" height="120">
<circle cx="74" cy="85" r="60" fill="#C4C4C4"/>
</mask>
<g mask="url(#mask0_2:14)">
<path fill-rule="evenodd" clip-rule="evenodd" d="M91.5472 66.8183C91.645 67.1594 91.7414 67.5 91.8366 67.84C91.5972 67.1795 91.3524 66.517 91.1023 65.8528C91.252 66.175 91.4003 66.4968 91.5472 66.8183ZM91.2499 65.7925C91.3503 66.135 91.4494 66.4769 91.5472 66.8183C92.4984 68.8994 93.3908 70.9643 94.2253 73.0085C94.8647 75.6245 95.4273 78.2016 95.9158 80.7333C94.7857 76.5445 93.4296 72.2351 91.8366 67.84C93.54 73.9267 94.8304 79.8327 95.7411 85.4767C97.5511 96.6941 97.8596 106.868 96.9338 115.361C96.8759 115.892 96.8131 116.417 96.7457 116.934C86.0263 115.11 72.2885 110.876 55.2489 103.559C54.4506 103.141 53.6449 102.715 52.8318 102.28C52.0634 101.786 51.2882 101.282 50.5061 100.77C49.7939 100.218 49.0758 99.6565 48.3517 99.0858C47.6902 98.4739 47.0237 97.8521 46.3521 97.2204C45.7465 96.5532 45.1368 95.8758 44.5229 95.188C43.9777 94.4705 43.4292 93.7424 42.8775 93.0036C42.397 92.2415 41.9142 91.4686 41.429 90.6847C41.0167 89.8834 40.603 89.0712 40.188 88.2479C35.6193 77.0692 30.9762 63.9019 26.3402 48.5458C29.7969 44.0333 33.8801 40.0259 38.4597 36.6537C54.7791 41.2254 69.3045 47.5582 81.6342 54.6959C82.221 55.0952 82.8024 55.4962 83.3782 55.8985C83.9349 56.3551 84.4859 56.8128 85.0311 57.2715C85.5385 57.7678 86.0403 58.2648 86.5363 58.7622C86.9985 59.3008 87.4551 59.8395 87.9059 60.3783C88.3195 60.9552 88.7273 61.5317 89.1295 62.1078C89.4911 62.7184 89.8471 63.3282 90.1975 63.9369C90.5046 64.5769 90.8062 65.2156 91.1023 65.8528C90.9779 65.5223 90.8521 65.1914 90.725 64.8601C90.9014 65.1712 91.0764 65.482 91.2499 65.7925ZM90.9436 64.7596C91.047 65.1045 91.1491 65.4487 91.2499 65.7925C91.9924 67.1212 92.7081 68.4447 93.3972 69.7615C93.6863 70.8501 93.9623 71.9326 94.2253 73.0085C94.9578 74.8031 95.6458 76.5817 96.2898 78.3416C96.7216 79.8552 97.1244 81.3543 97.4987 82.8374C100.297 93.9253 101.506 104.123 101.322 112.77C101.286 114.424 101.2 116.022 101.064 117.56C100.736 117.521 100.405 117.48 100.071 117.437C100.203 115.935 100.287 114.37 100.322 112.749C100.504 104.207 99.3099 94.0991 96.5291 83.0821C96.3326 82.3036 96.1282 81.5206 95.9158 80.7333C96.214 82.2788 96.4847 83.8073 96.7283 85.3174C98.55 96.607 98.8651 106.872 97.9279 115.469C97.868 116.018 97.803 116.561 97.7329 117.097C97.4067 117.045 97.0776 116.991 96.7457 116.934C96.7022 117.268 96.6568 117.598 96.6095 117.926C88.5089 116.55 78.7262 113.815 67.1455 109.447C63.3804 107.699 59.4161 105.741 55.2489 103.559C54.8199 103.375 54.3888 103.188 53.9557 103C53.5827 102.763 53.2081 102.523 52.8318 102.28C52.4312 102.066 52.0289 101.85 51.6247 101.632C51.2535 101.347 50.8806 101.06 50.5061 100.77C50.1264 100.521 49.745 100.27 49.3621 100.016C49.0266 99.7087 48.6898 99.3985 48.3517 99.0858C47.9951 98.8047 47.6371 98.5213 47.2776 98.2356C46.9702 97.8998 46.6617 97.5615 46.3521 97.2204C46.0214 96.9093 45.6894 96.5958 45.3563 96.2799C45.0793 95.9187 44.8015 95.5547 44.5229 95.188C44.2205 94.8493 43.9171 94.508 43.6126 94.1642C43.3682 93.7801 43.1231 93.3933 42.8775 93.0036C42.6058 92.6399 42.3333 92.2735 42.0601 91.9046C41.8501 91.5008 41.6397 91.0942 41.429 90.6847C41.1901 90.2986 40.9505 89.9098 40.7104 89.5184C40.5364 89.0978 40.3623 88.6743 40.188 88.2479C38.3939 84.6889 36.5745 80.9228 34.7321 76.9428C31.6971 68.708 28.6442 59.5916 25.5958 49.5386C25.8406 49.205 26.0887 48.874 26.3402 48.5458C25.3134 45.1447 24.2869 41.6362 23.2617 38.0182L22.2996 38.2909C23.397 42.1637 24.4961 45.9121 25.5958 49.5386C25.0393 50.2969 24.5002 51.0687 23.9791 51.8536C22.7237 48.7069 21.4603 45.4635 20.1893 42.1213L19.2546 42.4767C20.6158 46.0561 21.9686 49.5232 23.3124 52.8801C22.8048 53.6795 22.3156 54.4917 21.8453 55.3162C20.4068 52.4553 18.9536 49.5093 17.4862 46.4765L16.586 46.9121C18.1593 50.1636 19.7165 53.3162 21.2572 56.3718C20.8006 57.2114 20.3634 58.063 19.9463 58.9262C18.3742 56.3742 16.783 53.7495 15.1729 51.0507L14.3141 51.563C16.0435 54.4618 17.7514 57.2756 19.4375 60.0063C19.0344 60.8849 18.6519 61.7749 18.2906 62.6757C16.6377 60.4475 14.9632 58.159 13.2671 55.8091L12.4562 56.3944C14.2828 58.9251 16.0847 61.3851 17.862 63.7758C17.5154 64.692 17.1906 65.619 16.8882 66.556C15.2087 64.6577 13.5071 62.7112 11.7833 60.7155L11.0265 61.3692C12.89 63.5266 14.7279 65.627 16.5403 67.6715C16.2535 68.6236 15.9898 69.5857 15.7497 70.5572C14.0985 68.9863 12.4262 67.3783 10.7327 65.7326L10.0358 66.4498C11.8762 68.2382 13.6919 69.9825 15.483 71.6833C15.2596 72.6691 15.0605 73.6641 14.8863 74.6676C13.3174 73.413 11.7298 72.1313 10.1234 70.8222L9.49166 71.5973C11.2503 73.0306 12.9867 74.4312 14.701 75.7996C14.5385 76.8557 14.4035 77.9209 14.2968 78.9945C12.8671 78.0451 11.4221 77.0773 9.96191 76.091L9.40218 76.9196C11.0183 78.0113 12.6159 79.0803 14.195 80.127C14.1143 81.1314 14.0583 82.1427 14.0277 83.1605C12.7778 82.4731 11.5166 81.7742 10.2438 81.0635L9.75623 81.9366C11.1866 82.7353 12.6025 83.5192 14.0041 84.2885C14.0014 84.5254 14 84.7625 14 85C14 118.137 40.8629 145 74 145C107.137 145 134 118.137 134 85C134 52.157 107.612 25.4773 74.8808 25.0063C72.0759 20.0898 68.9931 15.1737 65.6183 10.293L64.7958 10.8618C68.0394 15.5527 71.0116 20.2761 73.7253 25.0006C72.7349 25.0051 71.7502 25.0335 70.7717 25.0854C67.4681 20.2887 63.871 15.5171 59.9683 10.8099L59.1985 11.4482C62.9481 15.9706 66.4138 20.5525 69.6067 25.1584C68.6231 25.2296 67.646 25.3245 66.6761 25.4425C62.8872 20.8342 58.7932 16.278 54.3848 11.8173L53.6736 12.5203C57.9069 16.8038 61.8485 21.1755 65.5068 25.5965C64.5326 25.7345 63.5659 25.896 62.6073 26.0802C58.3556 21.7261 53.7919 17.4528 48.9104 13.3075L48.2631 14.0697C52.948 18.0481 57.3383 22.1445 61.4392 26.3169C60.4767 26.5219 59.5229 26.75 58.5781 27.0005C53.8956 22.9629 48.8991 19.0358 43.5867 15.2691L43.0083 16.0849C48.103 19.6972 52.9053 23.4574 57.4168 27.3211C56.4687 27.5932 55.5301 27.8881 54.6018 28.205C49.5294 24.5415 44.146 21.0183 38.4542 17.6873L37.9491 18.5503C43.4029 21.7421 48.5717 25.1108 53.4531 28.6104C52.5215 28.9499 51.6008 29.3119 50.6915 29.6956C45.2786 26.458 39.563 23.3898 33.552 20.5436L33.124 21.4474C38.8778 24.1718 44.359 27.1004 49.5612 30.1863C48.6488 30.5938 47.7484 31.0233 46.8607 31.4743C41.1648 28.7076 35.1798 26.1375 28.9174 23.8162L28.5698 24.7539C34.557 26.9731 40.289 29.4208 45.7551 32.0506C44.8283 32.546 43.9161 33.065 43.0192 33.6068C37.1 31.3626 30.9106 29.3399 24.4674 27.5898L24.2053 28.5549C30.3566 30.2256 36.2749 32.146 41.9457 34.2708C41.1152 34.7967 40.2985 35.3424 39.4963 35.9073C33.4353 34.1831 27.1263 32.7005 20.5897 31.5081L20.4103 32.4919C26.6411 33.6284 32.6635 35.03 38.4597 36.6537C38.8025 36.4013 39.148 36.1525 39.4963 35.9073C50.5305 39.0462 60.7426 42.9855 70.0084 47.4308C74.0902 49.7703 77.9686 52.2016 81.6342 54.6959C81.9504 54.879 82.2652 55.0626 82.5785 55.2467C82.8464 55.4637 83.1129 55.681 83.3782 55.8985C83.6695 56.1021 83.9594 56.306 84.2479 56.5103C84.5104 56.7639 84.7715 57.0176 85.0311 57.2715C85.3029 57.5003 85.5734 57.7293 85.8423 57.9585C86.0751 58.2263 86.3064 58.4942 86.5363 58.7622C86.7872 59.0137 87.0366 59.2654 87.2846 59.5172C87.4931 59.8043 87.7002 60.0913 87.9059 60.3783C88.1339 60.6508 88.3605 60.9232 88.5856 61.1957C88.7683 61.4999 88.9496 61.804 89.1295 62.1078C89.3329 62.399 89.5348 62.6902 89.7352 62.9812C89.8907 63.3001 90.0448 63.6187 90.1975 63.9369C90.3748 64.2449 90.5506 64.5526 90.725 64.8601C90.5978 64.5285 90.4693 64.1966 90.3394 63.8642C90.5424 64.1629 90.7438 64.4613 90.9436 64.7596ZM90.6272 63.7165C90.734 64.0647 90.8395 64.4124 90.9436 64.7596C91.5814 65.7115 92.2037 66.6615 92.8104 67.6091C93.0117 68.3291 93.2073 69.0466 93.3972 69.7615C93.5774 70.106 93.7558 70.4499 93.9324 70.7934C94.7974 73.3438 95.5824 75.8622 96.2898 78.3416C96.57 79.1074 96.8419 79.8696 97.1055 80.628C100.836 91.3607 102.906 101.326 103.469 109.851C103.656 112.673 103.677 115.334 103.539 117.809C103.358 117.794 103.177 117.778 102.994 117.761C102.363 117.704 101.72 117.637 101.064 117.56C101.034 117.895 101.002 118.227 100.968 118.556C100.64 118.517 100.31 118.476 99.9755 118.432C100.01 118.104 100.042 117.772 100.071 117.437C99.3088 117.337 98.5295 117.224 97.7329 117.097C97.6894 117.43 97.6439 117.76 97.5964 118.088C97.2703 118.036 96.9413 117.982 96.6095 117.926C96.5116 118.603 96.4054 119.268 96.2911 119.92C88.3742 118.182 78.6968 114.808 67.1455 109.447C64.6473 108.505 62.0654 107.486 59.3987 106.389C57.6249 105.312 55.8107 104.183 53.9557 103C53.5368 102.818 53.116 102.635 52.6932 102.449C52.3386 102.179 51.9824 101.907 51.6247 101.632C51.2227 101.416 50.819 101.197 50.4134 100.976C50.0644 100.659 49.7139 100.339 49.3621 100.016C48.9811 99.7644 48.5986 99.5104 48.2145 99.2542C47.9033 98.9174 47.591 98.5779 47.2776 98.2356C46.9201 97.9514 46.5612 97.665 46.2008 97.3763C45.9202 97.0137 45.6387 96.6482 45.3563 96.2799C45.0249 95.9657 44.6922 95.649 44.3584 95.33C44.1105 94.9443 43.8619 94.5557 43.6126 94.1642C43.3099 93.8223 43.0062 93.4779 42.7015 93.131C42.4881 92.7252 42.2743 92.3164 42.0601 91.9046C41.7883 91.5376 41.5158 91.168 41.2424 90.7959C41.0652 90.373 40.8879 89.9472 40.7104 89.5184C39.6344 87.764 38.5471 85.9562 37.4488 84.094C36.5452 81.7881 35.6395 79.4049 34.7321 76.9428C31.2265 69.3702 27.6372 61.0231 23.9791 51.8536C23.7535 52.1933 23.5312 52.5355 23.3124 52.8801C27.2968 62.8337 31.2017 71.8197 35.0085 79.8981C30.774 72.5164 26.3825 64.3397 21.8453 55.3162C21.6459 55.6659 21.4498 56.0178 21.2572 56.3718C26.1929 66.1606 30.9589 74.9543 35.5413 82.8177C30.5759 75.6843 25.3752 67.7391 19.9463 58.9262C19.7732 59.2842 19.6036 59.6443 19.4375 60.0063C25.3363 69.5593 30.969 78.0939 36.3268 85.6802C30.6331 78.8562 24.6202 71.2082 18.2906 62.6757C18.1442 63.0406 18.0013 63.4073 17.862 63.7758C24.731 73.0159 31.2308 81.2199 37.3586 88.4631C30.9444 82.0132 24.122 74.7323 16.8882 66.556C16.7687 66.9263 16.6527 67.2981 16.5403 67.6715C24.3809 76.5164 31.7425 84.3144 38.6292 91.1456C31.5085 85.1369 23.8852 78.297 15.7497 70.5572C15.6573 70.9312 15.5684 71.3066 15.483 71.6833C24.2895 80.0461 32.5007 87.3589 40.1286 93.7071C32.322 88.2085 23.9135 81.8864 14.8863 74.6676C14.821 75.0437 14.7592 75.4211 14.701 75.7996C24.5827 83.6874 33.7287 90.5051 42.1603 96.3464C33.6044 91.4115 24.3251 85.654 14.2968 78.9945C14.2594 79.371 14.2254 79.7485 14.195 80.127C24.7304 87.1106 34.4449 93.1022 43.3676 98.1919C43.3696 98.1964 43.3716 98.2009 43.3736 98.2053C34.3933 93.976 24.622 88.9866 14.0277 83.1605C14.0164 83.5356 14.0085 83.9117 14.0041 84.2885C24.8534 90.2435 34.8451 95.3239 44.0132 99.6102C50.3065 113.322 56.4159 123.342 62.1283 130.192C68.2047 137.479 73.8907 141.25 78.9341 141.983C81.4903 142.354 83.8487 141.942 85.9731 140.849C88.0498 140.763 89.9388 140.157 91.6243 139.095C93.6856 138.828 95.5147 138.061 97.1013 136.855C99.1314 136.41 100.887 135.486 102.362 134.147C104.346 133.526 106.014 132.452 107.367 130.99C109.289 130.198 110.857 128.984 112.077 127.409C113.923 126.453 115.379 125.106 116.458 123.431C118.238 122.302 119.584 120.807 120.514 119.01C122.175 117.754 123.383 116.181 124.162 114.35C127.477 111.282 128.529 106.905 127.604 101.811C126.593 96.2406 123.218 89.7675 117.807 83.0326C112.39 76.2905 104.909 69.2551 95.638 62.5603C93.8488 61.2682 91.9925 59.9886 90.0713 58.7261C86.3789 47.7726 81.3743 36.3881 74.8808 25.0063C74.5877 25.0021 74.2941 25 74 25C73.9084 25 73.8168 25.0002 73.7253 25.0006C79.5556 35.1511 84.1924 45.3067 87.7631 55.1557C83.3092 45.2634 77.6825 35.1195 70.7717 25.0854C70.3824 25.106 69.994 25.1304 69.6067 25.1584C76.1729 34.6307 81.5852 44.2046 85.9389 53.572C80.7047 44.2215 74.3093 34.7263 66.6761 25.4425C66.2852 25.4901 65.8954 25.5414 65.5068 25.5965C72.756 34.3567 78.8929 43.3101 83.9833 52.1528C78.0175 43.3873 70.9068 34.5797 62.6073 26.0802C62.2165 26.1553 61.8272 26.2342 61.4392 26.3169C69.3191 34.334 76.1307 42.6313 81.9119 50.9101C75.2628 42.7688 67.4891 34.6844 58.5781 27.0005C58.1894 27.1036 57.8023 27.2105 57.4168 27.3211C65.8763 34.5657 73.3135 42.174 79.7398 49.8522C72.4553 42.3717 64.0704 35.0438 54.6018 28.205C54.2171 28.3364 53.8342 28.4715 53.4531 28.6104C62.4424 35.0551 70.4574 41.9436 77.484 48.988C69.6111 42.2017 60.6652 35.6611 50.6915 29.6956C50.3127 29.8554 49.936 30.019 49.5612 30.1863C59.0321 35.8044 67.5783 41.9442 75.1612 48.3234C66.7461 42.263 57.2881 36.5393 46.8607 31.4743C46.4899 31.6627 46.1214 31.8548 45.7551 32.0506C55.7724 36.8699 64.897 42.3006 73.0639 48.057C64.0499 42.6955 53.9996 37.77 43.0192 33.6068C42.6589 33.8245 42.301 34.0459 41.9457 34.2708C52.1258 38.0854 61.5081 42.5589 70.0084 47.4308C72.5071 48.6296 74.937 49.8651 77.2956 51.1317C79.1088 52.4898 80.87 53.8626 82.5785 55.2467C82.8868 55.4278 83.1937 55.6095 83.4993 55.7917C83.7501 56.0311 83.9997 56.2706 84.2479 56.5103C84.5398 56.7171 84.8303 56.9242 85.1193 57.1316C85.3618 57.4072 85.6028 57.6828 85.8423 57.9585C86.1145 58.1904 86.3852 58.4226 86.6544 58.6551C86.8659 58.9425 87.076 59.2299 87.2846 59.5172C87.5355 59.772 87.785 60.0269 88.033 60.2819C88.2186 60.5867 88.4028 60.8913 88.5856 61.1957C88.8133 61.4714 89.0396 61.747 89.2643 62.0227C89.4227 62.3425 89.5797 62.662 89.7352 62.9812C89.9381 63.2757 90.1395 63.57 90.3394 63.8642C90.2091 63.5306 90.0774 63.1965 89.9443 62.862C90.1735 63.1469 90.4012 63.4317 90.6272 63.7165ZM90.2995 62.6597C90.4101 63.0125 90.5194 63.3647 90.6272 63.7165C91.1095 64.324 91.5845 64.9312 92.0523 65.5379C92.3034 66.2052 92.5491 66.8707 92.7895 67.5343L92.8104 67.6091L92.8245 67.6311C93.2074 68.6903 93.5766 69.7446 93.9324 70.7934C94.8185 72.5172 95.6588 74.2291 96.4537 75.9261C97.0158 77.3964 97.5478 78.8548 98.05 80.2997C101.804 91.1015 103.897 101.156 104.467 109.785C104.656 112.645 104.678 115.353 104.536 117.883C104.208 117.861 103.875 117.836 103.539 117.809C103.52 118.145 103.499 118.477 103.474 118.807C103.285 118.791 103.095 118.775 102.903 118.757C102.271 118.7 101.626 118.633 100.968 118.556C100.89 119.302 100.8 120.033 100.698 120.748C100.373 120.698 100.044 120.645 99.7111 120.588C99.8109 119.886 99.8991 119.167 99.9755 118.432C99.1998 118.331 98.4068 118.217 97.5964 118.088C97.4962 118.78 97.3873 119.46 97.2698 120.128C96.9466 120.062 96.6203 119.992 96.2911 119.92C96.233 120.251 96.1728 120.579 96.1105 120.904C87.3774 118.991 76.5587 115.116 63.5102 108.834C62.1647 108.051 60.7942 107.236 59.3987 106.389C58.3212 105.946 57.2298 105.489 56.1245 105.02C54.9969 104.188 53.8531 103.331 52.6932 102.449C52.2713 102.264 51.8475 102.077 51.4217 101.888C51.0869 101.586 50.7508 101.283 50.4134 100.976C50.0086 100.756 49.6019 100.533 49.1935 100.309C48.8684 99.9603 48.5421 99.6087 48.2145 99.2542C47.8311 98.9985 47.4462 98.7407 47.0597 98.4807C46.7743 98.1155 46.488 97.7474 46.2008 97.3763C45.8412 97.0882 45.4802 96.7978 45.1177 96.5051C44.8653 96.1164 44.6122 95.7247 44.3584 95.33C44.0253 95.0116 43.691 94.6909 43.3555 94.3677C43.1379 93.9586 42.9199 93.5463 42.7015 93.131C42.3974 92.7848 42.0923 92.4361 41.7862 92.085C41.6051 91.6584 41.4238 91.2287 41.2424 90.7959C40.4173 89.6725 39.5851 88.5257 38.7458 87.3549C38.314 86.2856 37.8817 85.1987 37.4488 84.094C36.6413 82.7249 35.8279 81.3264 35.0085 79.8981C36.127 82.2716 37.237 84.5668 38.3381 86.7851C37.4143 85.4915 36.482 84.1692 35.5413 82.8177C36.8624 85.0848 38.1683 87.2746 39.4586 89.3886C38.4256 88.1805 37.3817 86.9445 36.3268 85.6802C37.6911 87.612 39.0376 89.4823 40.3662 91.2923L40.4836 91.5718C39.4529 90.5577 38.4113 89.5216 37.3586 88.4631C38.5628 89.8864 39.7525 91.2727 40.9279 92.6224C41.0269 92.855 41.1258 93.0867 41.2246 93.3176C40.367 92.606 39.5019 91.882 38.6292 91.1456C39.597 92.1056 40.5554 93.0465 41.5044 93.9685C41.6502 94.3066 41.7958 94.6427 41.9415 94.9768C41.3408 94.5585 40.7365 94.1353 40.1286 93.7071C40.7895 94.2571 41.446 94.7999 42.0981 95.3355C42.2902 95.7745 42.4821 96.21 42.6739 96.6422C42.503 96.5439 42.3318 96.4453 42.1603 96.3464C42.3445 96.4741 42.5284 96.6012 42.7119 96.7279C42.9307 97.2204 43.1492 97.7084 43.3676 98.1919C43.4031 98.2122 43.4386 98.2324 43.4741 98.2526C43.4406 98.2369 43.4071 98.2211 43.3736 98.2053C43.587 98.6779 43.8002 99.1462 44.0132 99.6102C44.483 99.8298 44.9506 100.047 45.4161 100.263C51.504 113.361 57.3981 122.958 62.8963 129.552C68.9126 136.766 74.3961 140.313 79.0779 140.993C80.6576 141.223 82.1605 141.128 83.5775 140.726C83.9601 140.78 84.338 140.817 84.7109 140.838C85.139 140.863 85.5598 140.866 85.9731 140.849C86.6649 140.493 87.3318 140.065 87.9726 139.568C88.4005 139.466 88.8187 139.337 89.2271 139.182C89.6129 139.201 89.9926 139.206 90.366 139.194C90.7946 139.181 91.2141 139.148 91.6243 139.095C92.2824 138.68 92.9094 138.196 93.5045 137.645C93.922 137.506 94.3274 137.341 94.7207 137.15C95.1068 137.136 95.4853 137.108 95.8563 137.064C96.2822 137.014 96.6972 136.944 97.1013 136.855C97.7207 136.385 98.3031 135.847 98.848 135.247C99.2516 135.072 99.641 134.872 100.016 134.648C100.4 134.601 100.774 134.539 101.14 134.463C101.56 134.376 101.967 134.27 102.362 134.147C102.938 133.624 103.471 133.038 103.962 132.392C104.349 132.182 104.719 131.95 105.074 131.694C105.451 131.613 105.819 131.519 106.177 131.411C106.588 131.288 106.984 131.147 107.367 130.99C107.895 130.419 108.375 129.788 108.808 129.103C109.175 128.86 109.524 128.596 109.854 128.31C110.224 128.197 110.582 128.071 110.929 127.932C111.327 127.774 111.71 127.599 112.077 127.409C112.554 126.794 112.977 126.124 113.348 125.403C113.693 125.13 114.017 124.836 114.322 124.522C114.68 124.377 115.026 124.221 115.359 124.053C115.742 123.86 116.108 123.652 116.458 123.431C116.879 122.777 117.242 122.073 117.549 121.322C117.904 120.986 118.231 120.628 118.532 120.247C118.884 120.068 119.221 119.877 119.545 119.676C119.884 119.465 120.207 119.243 120.514 119.01C120.863 118.337 121.153 117.622 121.385 116.867C121.68 116.542 121.952 116.201 122.201 115.844C122.522 115.642 122.83 115.431 123.124 115.211C123.492 114.937 123.838 114.65 124.162 114.35C124.474 113.614 124.718 112.838 124.893 112.023C126.79 109.385 127.344 105.972 126.621 101.989C125.651 96.6469 122.384 90.3262 117.027 83.6589C111.676 76.9985 104.264 70.023 95.0526 63.371C94.5001 62.972 93.9412 62.5743 93.3759 62.1778C92.4197 61.4008 91.4437 60.6267 90.4482 59.8562C90.3241 59.48 90.1985 59.1033 90.0713 58.7261C89.7286 58.5009 89.3838 58.2762 89.0369 58.0521C88.6235 57.0892 88.1989 56.1237 87.7631 55.1557C88.0889 56.0544 88.4058 56.9506 88.714 57.8439C88.4845 57.6965 88.2542 57.5493 88.023 57.4023C87.3499 56.1288 86.6553 54.8518 85.9389 53.572C86.4854 54.7479 87.0152 55.9205 87.5285 57.0893C87.3616 56.984 87.1941 56.8789 87.0262 56.7738C86.0472 55.2361 85.033 53.6951 83.9833 52.1528C84.7872 53.5493 85.565 54.943 86.3169 56.3327C86.2259 56.2764 86.1348 56.2202 86.0435 56.164C84.7181 54.4123 83.341 52.6599 81.9119 50.9101C82.9863 52.4487 84.0252 53.9866 85.0287 55.522C83.3355 53.626 81.5725 51.7343 79.7398 49.8522C80.9443 51.2914 82.1132 52.733 83.2468 54.1751C81.3949 52.4339 79.4737 50.7031 77.484 48.988C78.8093 50.3166 80.0994 51.6508 81.3543 52.9887C79.3576 51.4155 77.2929 49.8587 75.1612 48.3234C76.6136 49.5452 78.0306 50.7758 79.412 52.0132C77.3574 50.6721 75.2409 49.3518 73.0639 48.057C74.5044 49.0723 75.9151 50.0977 77.2956 51.1317C78.2797 51.6601 79.2514 52.194 80.2105 52.7328C81.3307 53.7485 82.427 54.7685 83.4993 55.7917C83.8094 55.9766 84.1181 56.162 84.4253 56.3478C84.6579 56.609 84.8893 56.8703 85.1193 57.1316C85.4127 57.3423 85.7046 57.5532 85.995 57.7646C86.2163 58.0614 86.4361 58.3583 86.6544 58.6551C86.9277 58.891 87.1995 59.1272 87.4698 59.3636C87.6589 59.6699 87.8466 59.976 88.033 60.2819C88.2846 60.5408 88.5348 60.7997 88.7834 61.0587C88.9451 61.3803 89.1054 61.7016 89.2643 62.0227C89.4925 62.3025 89.7192 62.5823 89.9443 62.862C89.8103 62.5252 89.6749 62.188 89.5382 61.8504C89.7936 62.1201 90.0474 62.3899 90.2995 62.6597ZM89.9591 61.5859C90.074 61.9444 90.1874 62.3023 90.2995 62.6597C90.5738 62.9533 90.8462 63.247 91.1166 63.5407C91.4249 64.1836 91.7277 64.8253 92.025 65.4654L92.0523 65.5379L92.0682 65.5586C92.2094 65.863 92.3492 66.167 92.4879 66.4708C92.5898 66.8259 92.6903 67.1804 92.7895 67.5343L92.8245 67.6311C93.034 67.9584 93.2417 68.2855 93.4475 68.6123C94.5314 71.0775 95.533 73.5178 96.4537 75.9261C96.7997 76.6646 97.137 77.4003 97.4657 78.133C102.117 88.4997 105.048 98.2466 106.352 106.69C106.987 110.803 107.235 114.597 107.111 117.998C106.281 117.98 105.423 117.942 104.536 117.883C104.518 118.219 104.496 118.551 104.472 118.881C104.143 118.859 103.81 118.834 103.474 118.807C103.416 119.586 103.342 120.346 103.252 121.085C102.427 120.996 101.576 120.884 100.698 120.748C100.651 121.081 100.601 121.411 100.548 121.737C100.223 121.687 99.8937 121.634 99.5613 121.577C99.6139 121.251 99.6638 120.922 99.7111 120.588C99.565 120.563 99.4182 120.538 99.2706 120.512C98.6171 120.396 97.9502 120.268 97.2698 120.128C97.2116 120.459 97.1513 120.787 97.0889 121.112C96.7657 121.045 96.4396 120.976 96.1105 120.904C95.9594 121.692 95.796 122.461 95.6206 123.21C95.4452 123.164 95.2689 123.117 95.0916 123.068C86.7037 120.793 76.2177 116.229 63.5102 108.834C61.2978 107.769 59.0213 106.635 56.6799 105.429C56.4952 105.293 56.3101 105.157 56.1245 105.02C55.6916 104.836 55.2565 104.651 54.8193 104.463C54.4075 104.247 53.9938 104.03 53.5781 103.81C52.8657 103.181 52.1469 102.541 51.4217 101.888C50.9953 101.699 50.5669 101.508 50.1366 101.315C49.8234 100.982 49.5091 100.647 49.1935 100.309C48.7846 100.084 48.3738 99.8573 47.9612 99.6285C47.6617 99.2492 47.3612 98.8666 47.0597 98.4807C46.6726 98.2203 46.2839 97.9578 45.8936 97.6932C45.6357 97.3003 45.3771 96.9043 45.1177 96.5051C44.7549 96.212 44.3905 95.9166 44.0248 95.6189C43.8021 95.2051 43.579 94.7881 43.3555 94.3677C43.0195 94.0442 42.6823 93.7181 42.3439 93.3897C42.1581 92.9581 41.9722 92.5232 41.7862 92.085C41.1663 91.3739 40.5424 90.6525 39.9145 89.9207C39.7024 89.5044 39.49 89.0851 39.2773 88.663C39.1002 88.2299 38.9231 87.7939 38.7458 87.3549C38.6101 87.1656 38.4742 86.9757 38.3381 86.7851C38.6519 87.4173 38.965 88.0433 39.2773 88.663C39.4126 88.994 39.5479 89.3234 39.6832 89.6509L39.4586 89.3886C39.5781 89.5844 39.6975 89.7795 39.8167 89.974C40 90.4166 40.1831 90.856 40.3662 91.2923C40.5116 91.4904 40.6568 91.6878 40.8018 91.8845L40.4836 91.5718C40.6318 91.924 40.7799 92.2742 40.9279 92.6224C41.2436 92.9848 41.5582 93.3447 41.8718 93.7019L42.0131 93.9701C41.751 93.7537 41.4882 93.5362 41.2246 93.3176C41.3179 93.5354 41.4112 93.7524 41.5044 93.9685C41.8533 94.3075 42.2009 94.644 42.5473 94.9779C42.6662 95.201 42.7849 95.4232 42.9035 95.6446C42.5838 95.4234 42.2632 95.2008 41.9415 94.9768L42.0981 95.3355C42.4799 95.649 42.8601 95.9601 43.2389 96.2687C43.4217 96.6078 43.6042 96.9447 43.7864 97.2794C43.4169 97.0686 43.0461 96.8561 42.6739 96.6422C42.6866 96.6708 42.6992 96.6993 42.7119 96.7279C43.1262 97.0139 43.5387 97.2975 43.9495 97.5787C44.171 97.9845 44.3921 98.387 44.6128 98.7865C44.2346 98.6099 43.8551 98.4319 43.4741 98.2526C43.8856 98.4872 44.2954 98.7198 44.7035 98.9506C44.9116 99.3266 45.1193 99.6998 45.3266 100.07L45.4161 100.263L45.4411 100.274C53.2044 114.114 60.4328 124.008 66.9415 130.557C73.1395 136.793 78.7405 140.051 83.5775 140.726C84.3124 140.518 85.0242 140.227 85.7115 139.857C86.4924 139.839 87.2465 139.742 87.9726 139.568C88.155 139.427 88.3354 139.28 88.5136 139.128C88.7537 139.151 88.9915 139.169 89.2271 139.182C89.941 138.91 90.6248 138.558 91.2772 138.129C92.0536 138.044 92.7963 137.881 93.5045 137.645C93.674 137.488 93.8409 137.326 94.0051 137.159C94.2465 137.162 94.485 137.159 94.7207 137.15C95.4083 136.818 96.0587 136.408 96.6713 135.923C97.4373 135.77 98.163 135.544 98.848 135.247C99.0031 135.076 99.1552 134.9 99.3042 134.719C99.5448 134.701 99.7821 134.677 100.016 134.648C100.672 134.257 101.284 133.792 101.852 133.256C102.602 133.037 103.305 132.748 103.962 132.392C104.102 132.208 104.238 132.02 104.37 131.826C104.609 131.787 104.843 131.743 105.074 131.694C105.693 131.247 106.262 130.73 106.781 130.147C107.509 129.863 108.185 129.514 108.808 129.103C108.931 128.907 109.05 128.707 109.165 128.503C109.399 128.444 109.629 128.379 109.854 128.31C110.432 127.811 110.954 127.246 111.421 126.62C112.121 126.274 112.763 125.868 113.348 125.403C113.454 125.198 113.555 124.989 113.652 124.775C113.88 124.695 114.103 124.611 114.322 124.522C114.854 123.975 115.325 123.367 115.735 122.702C116.402 122.297 117.007 121.836 117.549 121.322C117.647 121.081 117.74 120.836 117.827 120.586C118.068 120.478 118.303 120.365 118.532 120.247C118.994 119.665 119.393 119.03 119.729 118.348C120.345 117.9 120.897 117.406 121.385 116.867C121.451 116.654 121.512 116.438 121.569 116.219C121.785 116.098 121.995 115.972 122.201 115.844C122.65 115.199 123.024 114.503 123.324 113.76C123.923 113.226 124.445 112.646 124.893 112.023C125.245 110.391 125.325 108.607 125.144 106.703C124.608 101.067 121.793 94.3313 116.972 87.1623C112.146 79.9857 105.287 72.342 96.6164 64.8861C95.563 63.9803 94.4827 63.0771 93.3759 62.1778C92.4614 61.5364 91.5301 60.8985 90.5823 60.2646C90.5378 60.1286 90.4931 59.9924 90.4482 59.8562C90.1315 59.6112 89.813 59.3665 89.4924 59.1223C89.3421 58.7659 89.1903 58.4092 89.0369 58.0521C88.9295 57.9826 88.8218 57.9133 88.714 57.8439C88.8208 58.1537 88.9266 58.4631 89.0313 58.7722C88.872 58.6517 88.7123 58.5313 88.552 58.411C88.3772 58.075 88.2008 57.7388 88.023 57.4023C87.8586 57.2978 87.6938 57.1935 87.5285 57.0893C87.6497 57.3651 87.7699 57.6407 87.8892 57.9161C87.801 57.8506 87.7127 57.7851 87.6242 57.7196C87.4263 57.4045 87.227 57.0892 87.0262 56.7738C86.7907 56.6265 86.5543 56.4795 86.3169 56.3327C86.4408 56.5616 86.5639 56.7904 86.6864 57.0191C86.4734 56.7341 86.2591 56.449 86.0435 56.164C85.7212 55.9655 85.3973 55.7676 85.0718 55.5703L85.0287 55.522L85.0526 55.5587C84.7393 55.3688 84.4245 55.1794 84.1081 54.9905C83.8227 54.7184 83.5356 54.4467 83.2468 54.1751C83.3952 54.364 83.5431 54.5529 83.6904 54.7419C83.5106 54.6352 83.3304 54.5288 83.1497 54.4225C82.5575 53.9431 81.959 53.4651 81.3543 52.9887C81.6167 53.2685 81.8777 53.5485 82.1371 53.8286C81.2412 53.2196 80.3328 52.6143 79.412 52.0132C79.6795 52.2528 79.9457 52.4927 80.2105 52.7328C80.8605 53.098 81.5047 53.4654 82.143 53.835C82.9175 54.6715 83.6783 55.5093 84.4253 56.3478C84.7381 56.5371 85.0494 56.7269 85.3592 56.9172C85.5725 57.1997 85.7844 57.4821 85.995 57.7646C86.2907 57.9798 86.585 58.1954 86.8776 58.4114C87.0765 58.7289 87.2739 59.0463 87.4698 59.3636C87.745 59.6043 88.0186 59.8452 88.2907 60.0864C88.4563 60.4108 88.6205 60.7349 88.7834 61.0587C89.0366 61.3225 89.2882 61.5864 89.5382 61.8504C89.4001 61.5094 89.2606 61.168 89.1196 60.8262C89.4012 61.0793 89.681 61.3325 89.9591 61.5859ZM89.9372 61.5178L89.9591 61.5859L90.0104 61.6327C90.3735 62.2462 90.731 62.8589 91.0829 63.4706L91.1166 63.5407L91.1343 63.56C91.3014 63.8509 91.4672 64.1415 91.6318 64.432C91.7643 64.7769 91.8953 65.1214 92.025 65.4654L92.0682 65.5586C92.1518 65.6671 92.2352 65.7756 92.3184 65.8841C92.3753 66.0798 92.4318 66.2754 92.4879 66.4708C92.8147 67.1866 93.1345 67.9005 93.4475 68.6123C94.4806 70.2524 95.467 71.8847 96.4068 73.5061C97.0949 74.9217 97.7519 76.3281 98.3781 77.7236C103.06 88.157 106.021 97.9904 107.341 106.537C107.981 110.682 108.236 114.534 108.111 118.01C107.783 118.009 107.449 118.005 107.111 117.998C107.099 118.335 107.083 118.668 107.063 118.997C106.225 118.979 105.361 118.94 104.472 118.881C104.413 119.667 104.338 120.435 104.247 121.184C103.919 121.155 103.588 121.122 103.252 121.085C103.211 121.42 103.166 121.751 103.119 122.077C102.286 121.986 101.429 121.873 100.548 121.737C100.412 122.582 100.259 123.404 100.088 124.202C99.7648 124.144 99.4371 124.082 99.1054 124.016C99.2742 123.228 99.4263 122.415 99.5613 121.577C99.4071 121.551 99.2521 121.524 99.0964 121.497C98.4403 121.381 97.7712 121.252 97.0889 121.112C96.9351 121.912 96.7687 122.694 96.59 123.456C96.2702 123.377 95.9471 123.295 95.6206 123.21C95.5439 123.537 95.4648 123.861 95.3835 124.181C95.1999 124.133 95.0153 124.084 94.8298 124.034C85.8751 121.605 74.6013 116.613 60.8674 108.439C59.4973 107.475 58.1015 106.472 56.6799 105.429C56.0642 105.112 55.444 104.79 54.8193 104.463C54.494 104.323 54.1674 104.182 53.8397 104.04C53.7526 103.964 53.6654 103.887 53.5781 103.81C53.1623 103.59 52.7446 103.368 52.3248 103.143C51.934 102.892 51.5414 102.638 51.1471 102.382C50.8116 102.03 50.4748 101.674 50.1366 101.315C49.7043 101.121 49.27 100.925 48.8336 100.728C48.5438 100.364 48.253 99.9981 47.9612 99.6285C47.5511 99.4011 47.1392 99.1717 46.7255 98.9403C46.7181 98.9334 46.7107 98.9265 46.7033 98.9196C46.4342 98.5143 46.1643 98.1055 45.8936 97.6932C45.5015 97.4272 45.1077 97.1591 44.7123 96.8888C44.4836 96.469 44.2544 96.0457 44.0248 95.6189C43.6574 95.3199 43.2885 95.0185 42.9181 94.7147C42.7269 94.2765 42.5355 93.8349 42.3439 93.3897C41.9979 93.054 41.6507 92.7157 41.3022 92.3748C41.0547 91.9786 40.8066 91.5795 40.558 91.1776C40.3438 90.7616 40.1293 90.3426 39.9145 89.9207L39.6832 89.6509L39.8167 89.974C40.0644 90.378 40.3115 90.7792 40.558 91.1776C40.7216 91.4955 40.8851 91.8117 41.0483 92.1263L40.8018 91.8845C40.9379 92.0691 41.0738 92.2531 41.2095 92.4364C41.4306 92.8613 41.6514 93.2831 41.8718 93.7019C42.0339 93.8866 42.1958 94.0706 42.3574 94.2539L42.0131 93.9701C42.1914 94.308 42.3695 94.644 42.5473 94.9779C42.8286 95.249 43.109 95.5184 43.3885 95.7861L43.5117 96.0646C43.3094 95.9252 43.1066 95.7851 42.9035 95.6446C43.0154 95.8534 43.1272 96.0615 43.2389 96.2687C43.4291 96.4236 43.6188 96.578 43.8082 96.7317C43.9207 96.9837 44.033 97.2345 44.1454 97.4841C44.0258 97.416 43.9062 97.3478 43.7864 97.2794C43.8408 97.3794 43.8951 97.4791 43.9495 97.5787L44.2943 97.8145C44.4528 98.1652 44.611 98.5135 44.7692 98.8595L44.6128 98.7865C44.643 98.8412 44.6733 98.8959 44.7035 98.9506C44.7518 98.9779 44.8001 99.0051 44.8483 99.0324C45.0079 99.3807 45.1673 99.7266 45.3266 100.07L45.4411 100.274C45.9081 100.491 46.373 100.705 46.8357 100.917C47.0839 101.285 47.3315 101.651 47.5785 102.014C54.8249 114.627 61.5691 123.733 67.6507 129.852C74.2729 136.515 80.0447 139.57 84.768 139.84C85.0867 139.858 85.4012 139.864 85.7115 139.857C86.2058 139.59 86.6875 139.282 87.156 138.934C87.6163 139.019 88.0689 139.083 88.5136 139.128C88.8546 138.836 89.1878 138.524 89.5129 138.193C89.7914 138.202 90.0657 138.203 90.3358 138.195C90.6549 138.185 90.9687 138.163 91.2772 138.129C91.7464 137.821 92.1994 137.472 92.6359 137.084C93.1018 137.129 93.5583 137.153 94.0051 137.159C94.3195 136.838 94.6242 136.499 94.9192 136.14C95.1974 136.126 95.4707 136.102 95.7391 136.071C96.0562 136.033 96.3669 135.984 96.6713 135.923C97.1118 135.575 97.5327 135.188 97.9337 134.764C98.4017 134.768 98.8586 134.753 99.3042 134.719C99.5894 134.372 99.8634 134.007 100.126 133.625C100.402 133.586 100.672 133.539 100.937 133.484C101.249 133.419 101.555 133.343 101.852 133.256C102.261 132.87 102.646 132.448 103.009 131.991C103.476 131.954 103.929 131.899 104.37 131.826C104.624 131.456 104.865 131.069 105.094 130.665C105.365 130.602 105.63 130.532 105.889 130.454C106.195 130.362 106.492 130.259 106.781 130.147C107.155 129.727 107.502 129.273 107.823 128.786C108.285 128.708 108.732 128.614 109.165 128.503C109.386 128.113 109.592 127.706 109.785 127.283C110.05 127.197 110.307 127.104 110.558 127.004C110.855 126.885 111.142 126.757 111.421 126.62C111.756 126.17 112.063 125.687 112.34 125.173C112.793 125.056 113.23 124.923 113.652 124.775C113.838 124.367 114.008 123.943 114.163 123.506C114.419 123.396 114.668 123.281 114.909 123.16C115.195 123.016 115.47 122.863 115.735 122.702C116.047 122.197 116.323 121.659 116.564 121.089C117.002 120.935 117.422 120.767 117.827 120.586C117.972 120.165 118.102 119.732 118.214 119.286C118.492 119.14 118.76 118.987 119.017 118.826C119.263 118.673 119.501 118.514 119.729 118.348C119.965 117.868 120.171 117.365 120.345 116.839C120.771 116.645 121.179 116.438 121.569 116.219C121.681 115.785 121.775 115.338 121.851 114.88C122.085 114.728 122.31 114.571 122.526 114.41C122.806 114.201 123.071 113.985 123.324 113.76C124.128 111.765 124.398 109.425 124.148 106.797C123.634 101.392 120.915 94.8174 116.142 87.7203C111.374 80.6308 104.58 73.0526 95.9644 65.6443C95.2692 65.0465 94.5622 64.4499 93.8435 63.8548C92.8629 62.9102 91.8582 61.9672 90.8297 61.0267C90.7479 60.7729 90.6655 60.5189 90.5823 60.2646C90.3016 60.0769 90.0195 59.8895 89.736 59.7025C89.6552 59.5092 89.574 59.3158 89.4924 59.1223C89.3392 59.0055 89.1855 58.8888 89.0313 58.7722C89.0992 58.9725 89.1666 59.1727 89.2336 59.3727L89.1173 59.2967L88.9556 59.1912C88.822 58.9313 88.6875 58.6713 88.552 58.411C88.332 58.2459 88.1111 58.0809 87.8892 57.9161C87.996 58.1626 88.1021 58.4089 88.2074 58.655C88.0144 58.3434 87.82 58.0316 87.6242 57.7196C87.3198 57.4945 87.0137 57.2697 86.706 57.0453C86.6994 57.0366 86.6929 57.0278 86.6864 57.0191C86.6899 57.0256 86.6934 57.0321 86.6969 57.0387C86.3978 56.8206 86.0971 56.6029 85.7948 56.3856C85.5552 56.1138 85.3142 55.842 85.0718 55.5703L85.0526 55.5587C85.173 55.743 85.2929 55.9272 85.4123 56.1115C85.238 55.9869 85.0632 55.8625 84.8878 55.7382C84.6293 55.4888 84.3694 55.2395 84.1081 54.9905C83.9692 54.9075 83.8299 54.8246 83.6904 54.7419C83.7761 54.8518 83.8615 54.9617 83.9468 55.0716C83.6824 54.855 83.4167 54.6386 83.1497 54.4225C82.8236 54.2307 82.4959 54.0394 82.1667 53.8487C82.1568 53.842 82.1469 53.8353 82.1371 53.8286C82.139 53.8307 82.141 53.8329 82.143 53.835C82.1509 53.8396 82.1588 53.8442 82.1667 53.8487C82.7682 54.2578 83.364 54.6686 83.9541 55.081C84.4288 55.6931 84.8972 56.3052 85.3592 56.9172C85.6758 57.1116 85.9907 57.3065 86.3041 57.5018C86.4966 57.8052 86.6878 58.1083 86.8776 58.4114C87.1766 58.632 87.474 58.8531 87.7698 59.0744C87.9449 59.412 88.1186 59.7494 88.2907 60.0864C88.5686 60.3328 88.8449 60.5794 89.1196 60.8262C88.9727 60.4701 88.8243 60.1134 88.6743 59.7564C88.6862 59.7654 88.698 59.7744 88.7098 59.7834C89.1246 60.3619 89.5337 60.94 89.9372 61.5178ZM89.9312 61.4991L89.9372 61.5178L89.9709 61.566L90.0104 61.6327L90.0297 61.6503C90.2215 61.9256 90.412 62.2006 90.6013 62.4756C90.7633 62.8076 90.9238 63.1393 91.0829 63.4706L91.1343 63.56C91.2271 63.6608 91.3196 63.7616 91.4119 63.8624C91.4856 64.0524 91.5589 64.2422 91.6318 64.432C91.8154 64.7559 91.9974 65.0796 92.1778 65.403C92.2249 65.5635 92.2718 65.7238 92.3184 65.8841C92.4712 66.0834 92.6233 66.2827 92.7745 66.4819C94.0692 68.8433 95.2797 71.1871 96.4068 73.5061C96.8157 74.2115 97.2158 74.9149 97.6071 75.6161C103.145 85.5379 106.914 94.9923 108.949 103.29C110.289 108.754 110.873 113.7 110.723 117.94C109.887 117.988 109.017 118.011 108.111 118.01C108.099 118.347 108.084 118.68 108.064 119.01C107.735 119.009 107.401 119.005 107.063 118.997C107.015 119.803 106.946 120.584 106.855 121.342C106.018 121.316 105.149 121.264 104.247 121.184C104.206 121.518 104.162 121.849 104.115 122.176C103.787 122.146 103.455 122.113 103.119 122.077C102.993 122.944 102.844 123.781 102.672 124.587C101.841 124.489 100.98 124.361 100.088 124.202C100.018 124.531 99.9447 124.857 99.8685 125.178C99.5442 125.12 99.2163 125.058 98.8849 124.992C98.9613 124.671 99.0348 124.346 99.1054 124.016C98.2912 123.855 97.4528 123.668 96.59 123.456C96.5131 123.784 96.4341 124.107 96.3527 124.428C96.0326 124.349 95.7096 124.267 95.3835 124.181C95.1826 124.972 94.968 125.738 94.7399 126.48C93.4888 126.116 92.1837 125.685 90.824 125.186C82.7261 122.21 72.7652 116.807 60.8674 108.439C58.6852 107.14 56.4409 105.761 54.1339 104.299L53.8397 104.04L53.4849 103.886C53.1 103.641 52.7133 103.393 52.3248 103.143C52.0176 102.979 51.7093 102.814 51.3999 102.647C51.3157 102.559 51.2314 102.471 51.1471 102.382C50.7416 102.119 50.3342 101.853 49.925 101.584C49.568 101.308 49.2096 101.029 48.8497 100.748L48.8336 100.728L48.8106 100.717C48.4425 100.43 48.0729 100.139 47.7017 99.8468C47.3775 99.547 47.0521 99.2448 46.7255 98.9403C46.721 98.9378 46.7166 98.9353 46.7121 98.9328L46.7033 98.9196C46.3497 98.5898 45.9947 98.2572 45.6383 97.9219C45.3347 97.5876 45.0302 97.2508 44.7246 96.9113L44.7123 96.8888L44.6915 96.8746C44.379 96.5273 44.0653 96.1773 43.7506 95.8247C43.4773 95.4651 43.2033 95.103 42.9284 94.7382L42.9181 94.7147L42.8987 94.6987C42.6175 94.3254 42.3355 93.9494 42.0526 93.5705C41.8031 93.1749 41.553 92.7763 41.3022 92.3748L41.0483 92.1263L41.2095 92.4364C41.4913 92.8172 41.7724 93.1952 42.0526 93.5705C42.2434 93.8731 42.4339 94.174 42.624 94.4732L42.3574 94.2539C42.509 94.4259 42.6604 94.5973 42.8116 94.768C42.9497 94.985 43.0877 95.201 43.2254 95.4161L43.2711 95.5199L43.3885 95.7861L43.5816 95.971L43.7458 96.2259L43.5117 96.0646C43.6106 96.2879 43.7094 96.5102 43.8082 96.7317C43.9945 96.8828 44.1803 97.0333 44.3659 97.1833C44.5132 97.4099 44.6604 97.6355 44.8073 97.8601C44.5872 97.7353 44.3665 97.61 44.1454 97.4841C44.195 97.5944 44.2447 97.7046 44.2943 97.8145C44.5862 98.0138 44.8772 98.212 45.1673 98.409C45.3696 98.7166 45.5714 99.0222 45.7728 99.3259C45.4394 99.1715 45.1049 99.016 44.7692 98.8595C44.7956 98.9172 44.822 98.9748 44.8483 99.0324C45.2381 99.2525 45.6263 99.4709 46.013 99.6876C46.288 100.101 46.5622 100.511 46.8357 100.917L46.9926 100.989C47.1882 101.333 47.3835 101.675 47.5785 102.014C56.571 115.227 64.6788 124.515 71.7681 130.501C77.5608 135.392 82.7183 138.115 87.156 138.934C87.5071 138.673 87.8509 138.39 88.1871 138.084C88.639 138.142 89.081 138.178 89.5129 138.193C89.9355 137.762 90.3444 137.299 90.7394 136.804C91.388 136.932 92.0202 137.026 92.6359 137.084C92.9629 136.794 93.2806 136.481 93.5889 136.147C94.0442 136.166 94.4876 136.163 94.9192 136.14C95.3026 135.675 95.6696 135.178 96.0199 134.65C96.6773 134.721 97.3152 134.759 97.9337 134.764C98.2341 134.446 98.5234 134.107 98.8014 133.748C99.2565 133.726 99.6981 133.685 100.126 133.625C100.467 133.127 100.79 132.6 101.093 132.044C101.754 132.058 102.392 132.04 103.009 131.991C103.281 131.648 103.539 131.285 103.785 130.903C104.236 130.842 104.673 130.762 105.094 130.665C105.39 130.14 105.666 129.586 105.919 129.006C106.579 128.962 107.213 128.888 107.823 128.786C108.064 128.421 108.29 128.036 108.501 127.634C108.946 127.534 109.374 127.417 109.785 127.283C110.034 126.734 110.26 126.159 110.462 125.559C111.115 125.457 111.741 125.329 112.34 125.173C112.548 124.789 112.74 124.386 112.915 123.967C113.349 123.829 113.765 123.675 114.163 123.506C114.374 122.909 114.556 122.286 114.709 121.637C115.358 121.479 115.976 121.296 116.564 121.089C116.733 120.689 116.885 120.274 117.019 119.844C117.437 119.672 117.835 119.485 118.214 119.286C118.356 118.725 118.472 118.144 118.563 117.545C119.189 117.332 119.783 117.096 120.345 116.839C120.483 116.424 120.602 115.995 120.702 115.551C121.106 115.34 121.489 115.116 121.851 114.88C122.022 113.853 122.104 112.768 122.098 111.634C122.07 105.973 119.87 99.0117 115.71 91.4395C111.547 83.8593 105.401 75.6317 97.4334 67.4286C96.2752 66.2363 95.0785 65.0443 93.8435 63.8548C92.9149 63.0858 91.9668 62.3193 90.9993 61.556C90.9431 61.3797 90.8866 61.2033 90.8297 61.0267C90.5407 60.7625 90.2499 60.4985 89.9572 60.2347C89.8838 60.0574 89.8101 59.88 89.736 59.7025C89.569 59.5925 89.4016 59.4825 89.2336 59.3727L89.3353 59.6772C89.2555 59.6059 89.1754 59.5347 89.0953 59.4635L88.9556 59.1912C88.7454 59.0544 88.5345 58.9178 88.3228 58.7814L88.2414 58.7101L88.2074 58.655L88.2246 58.6953C87.949 58.4539 87.6719 58.2127 87.3932 57.9717C87.1657 57.663 86.9366 57.3542 86.706 57.0453C86.7029 57.0431 86.6999 57.0409 86.6969 57.0387C86.8068 57.244 86.9161 57.4492 87.0249 57.6543C86.8664 57.5181 86.7075 57.382 86.548 57.246C86.2985 56.9592 86.0475 56.6724 85.7948 56.3856C85.6676 56.2942 85.5401 56.2028 85.4123 56.1115C85.491 56.233 85.5696 56.3546 85.6479 56.4761C85.3959 56.23 85.1426 55.984 84.8878 55.7382C84.5876 55.5254 84.2858 55.3129 83.9826 55.1009C83.9706 55.0911 83.9587 55.0813 83.9468 55.0716C83.9492 55.0747 83.9517 55.0779 83.9541 55.081C83.9636 55.0876 83.9731 55.0943 83.9826 55.1009C84.5471 55.5636 85.1057 56.0276 85.6585 56.4926C85.8754 56.8292 86.0906 57.1656 86.3041 57.5018C86.6253 57.7021 86.9448 57.9029 87.2626 58.1042C87.4331 58.4279 87.6021 58.7513 87.7698 59.0744C88.073 59.3014 88.3746 59.5287 88.6743 59.7564C88.6693 59.7443 88.6642 59.7323 88.6591 59.7202L88.6968 59.7652C88.7011 59.7713 88.7055 59.7773 88.7098 59.7834C88.7118 59.7849 88.7138 59.7864 88.7158 59.7879C88.9468 60.0641 89.1762 60.3404 89.4043 60.6166C89.5812 60.9109 89.7568 61.2051 89.9312 61.4991ZM89.803 61.1016C89.8459 61.2341 89.8887 61.3666 89.9312 61.4991L89.9709 61.566L90.0297 61.6503C90.1309 61.7427 90.2318 61.835 90.3326 61.9274C90.4226 62.1102 90.5122 62.293 90.6013 62.4756C90.8124 62.7824 91.0219 63.089 91.2298 63.3954C91.2908 63.5512 91.3515 63.7068 91.4119 63.8624C91.5648 64.0295 91.7171 64.1965 91.8688 64.3636C91.9731 64.7106 92.0761 65.0571 92.1778 65.403C92.3786 65.763 92.5776 66.1227 92.7745 66.4819C93.9466 68.0257 95.0714 69.5657 96.1489 71.0989C96.9578 72.4492 97.7349 73.7931 98.4803 75.1287C104.053 85.1144 107.86 94.6523 109.92 103.052C111.262 108.525 111.867 113.531 111.726 117.87C111.397 117.898 111.063 117.921 110.723 117.94C110.711 118.28 110.694 118.614 110.673 118.945C109.835 118.99 108.965 119.012 108.064 119.01C108.017 119.815 107.949 120.598 107.859 121.359C107.53 121.358 107.195 121.352 106.855 121.342C106.814 121.679 106.769 122.011 106.72 122.338C105.881 122.31 105.013 122.256 104.115 122.176C103.99 123.042 103.842 123.881 103.672 124.692C103.344 124.662 103.011 124.627 102.672 124.587C102.602 124.919 102.527 125.246 102.449 125.567C101.615 125.466 100.755 125.337 99.8685 125.178C99.6745 125.996 99.4617 126.788 99.2304 127.551C98.906 127.492 98.577 127.428 98.2435 127.359C98.4759 126.6 98.6898 125.811 98.8849 124.992C98.0629 124.828 97.2188 124.64 96.3527 124.428C96.1501 125.225 95.9335 125.999 95.703 126.75C95.3856 126.664 95.0646 126.574 94.7399 126.48C94.6409 126.802 94.5393 127.12 94.4352 127.433C93.1659 127.062 91.8472 126.627 90.4791 126.124C81.7701 122.924 70.9744 116.969 58.0052 107.629C56.7365 106.56 55.4461 105.45 54.1339 104.299C53.9181 104.162 53.7018 104.024 53.4849 103.886C53.0529 103.698 52.6188 103.509 52.1826 103.317C52.0081 103.184 51.8332 103.051 51.658 102.917C51.5721 102.828 51.486 102.738 51.3999 102.647C51.2932 102.59 51.1865 102.532 51.0795 102.475C50.6964 102.181 50.3116 101.884 49.925 101.584C49.64 101.398 49.354 101.21 49.0672 101.02L48.8497 100.748L48.8106 100.717L48.487 100.571C48.226 100.331 47.9643 100.09 47.7017 99.8468C47.4341 99.6358 47.1656 99.4235 46.8963 99.2099L46.7121 98.9328C46.6082 98.8747 46.5042 98.8164 46.4001 98.7581C46.1469 98.4811 45.8929 98.2024 45.6383 97.9219C45.39 97.6884 45.1411 97.4535 44.8916 97.2173L44.7246 96.9113L44.6915 96.8746L44.3983 96.6739C44.1829 96.3925 43.967 96.1094 43.7506 95.8247C43.5236 95.5704 43.2961 95.3147 43.0681 95.0575L42.9284 94.7382L42.8987 94.6987L42.624 94.4732L42.8116 94.768L43.0681 95.0575L43.2254 95.4161C43.3443 95.6017 43.463 95.7867 43.5816 95.971C43.7593 96.1409 43.9366 96.3101 44.1136 96.4786L43.7458 96.2259C43.9529 96.547 44.1596 96.8662 44.3659 97.1833C44.6697 97.4289 44.9725 97.6728 45.2743 97.9152C45.3301 98.0167 45.3859 98.1179 45.4417 98.2189C45.2307 98.0998 45.0192 97.9802 44.8073 97.8601C44.9275 98.0437 45.0475 98.2267 45.1673 98.409C45.3702 98.5467 45.5727 98.6839 45.7748 98.8205C45.9017 99.049 46.0284 99.2764 46.155 99.5027L45.7728 99.3259C45.8529 99.4468 45.933 99.5673 46.013 99.6876C46.1324 99.7545 46.2517 99.8212 46.3708 99.8878C46.5785 100.258 46.7857 100.624 46.9926 100.989C47.3974 101.174 47.8007 101.358 48.2022 101.54C48.8026 102.291 49.3988 103.029 49.9909 103.754C58.309 115.687 65.8214 124.171 72.4132 129.737C78.545 134.914 83.8291 137.523 88.1871 138.084C88.6913 137.625 89.1786 137.116 89.6481 136.559C90.0169 136.651 90.3806 136.733 90.7394 136.804C90.9683 136.517 91.1926 136.219 91.412 135.911C92.1653 136.041 92.891 136.119 93.5889 136.147C94.0512 135.646 94.4922 135.097 94.9114 134.501C95.2868 134.561 95.6563 134.611 96.0199 134.65C96.223 134.344 96.4204 134.028 96.6122 133.702C97.3739 133.766 98.1037 133.78 98.8014 133.748C99.2183 133.208 99.6097 132.623 99.9753 131.992C100.355 132.019 100.727 132.036 101.093 132.044C101.268 131.722 101.437 131.39 101.6 131.048C102.364 131.045 103.093 130.996 103.785 130.903C104.153 130.329 104.492 129.711 104.801 129.051C105.181 129.045 105.554 129.03 105.919 129.006C106.066 128.669 106.205 128.324 106.338 127.97C107.099 127.9 107.82 127.787 108.501 127.634C108.818 127.031 109.102 126.386 109.353 125.701C109.731 125.662 110.101 125.615 110.462 125.559C110.579 125.211 110.688 124.854 110.789 124.49C111.541 124.354 112.25 124.179 112.915 123.967C113.19 123.31 113.425 122.612 113.62 121.873C113.992 121.802 114.355 121.724 114.709 121.637C114.793 121.281 114.869 120.918 114.936 120.547C115.677 120.347 116.371 120.112 117.019 119.844C117.214 119.22 117.373 118.564 117.495 117.878C117.861 117.774 118.217 117.663 118.563 117.545C118.618 117.182 118.663 116.812 118.699 116.435C119.416 116.171 120.084 115.876 120.702 115.551C120.974 114.347 121.106 113.04 121.098 111.639C121.071 106.209 118.951 99.4171 114.834 91.9209C110.721 84.4326 104.633 76.276 96.7161 68.1254C96.1566 67.5494 95.5881 66.9735 95.0105 66.3979C93.7814 64.9801 92.5062 63.561 91.1855 62.1434C91.1238 61.9478 91.0618 61.752 90.9993 61.556C90.7552 61.3634 90.5098 61.171 90.2632 60.9787C90.1619 60.7309 90.0599 60.4829 89.9572 60.2347C89.7508 60.0487 89.5436 59.8629 89.3353 59.6772C89.4176 59.9241 89.4991 60.1708 89.58 60.4173C89.4198 60.0996 89.2582 59.7817 89.0953 59.4635C88.8392 59.2359 88.5817 59.0085 88.3228 58.7814L88.2609 58.7415L88.2414 58.7101L88.2246 58.6953L88.2381 58.7269C88.0559 58.6096 87.8731 58.4925 87.6898 58.3756C87.6369 58.3034 87.584 58.2312 87.5309 58.159C87.4851 58.0966 87.4391 58.0342 87.3932 57.9717C87.2707 57.8659 87.1479 57.7601 87.0249 57.6543C87.0902 57.7774 87.1552 57.9005 87.2201 58.0235C86.9974 57.7643 86.7733 57.5051 86.548 57.246C86.268 57.0072 85.9865 56.7687 85.7035 56.5304L85.6479 56.4761L85.6585 56.4926L85.7035 56.5304C86.2178 57.0333 86.7264 57.5368 87.2292 58.0408L87.2626 58.1042L87.3213 58.1414C87.7726 58.6675 88.2186 59.1938 88.6591 59.7202L88.6515 59.7021L88.6968 59.7652C88.7031 59.7728 88.7094 59.7803 88.7158 59.7879C88.8322 59.8764 88.9484 59.9649 89.0643 60.0535C89.1781 60.2412 89.2914 60.429 89.4043 60.6166C89.5377 60.7783 89.6706 60.9399 89.803 61.1016ZM89.594 60.4601C89.4181 60.3244 89.2415 60.1889 89.0643 60.0535C88.9859 59.9242 88.9073 59.7949 88.8284 59.6656C89.0851 59.9299 89.3402 60.1944 89.5936 60.4589C89.5938 60.4593 89.5939 60.4597 89.594 60.4601ZM89.597 60.4624L89.5936 60.4589L89.58 60.4173L89.6064 60.4696C89.6032 60.4672 89.6001 60.4648 89.597 60.4624ZM89.6091 60.475L89.597 60.4624C89.596 60.4616 89.595 60.4609 89.594 60.4601C89.6642 60.6741 89.7339 60.8879 89.803 61.1016C89.9058 61.2271 90.0083 61.3526 90.1105 61.478C90.1402 61.5379 90.1698 61.5978 90.1994 61.6576C90.2439 61.7476 90.2883 61.8375 90.3326 61.9274C90.4995 62.0805 90.6658 62.2337 90.8315 62.3869C90.9656 62.7235 91.0984 63.0597 91.2298 63.3954C91.4409 63.7065 91.6504 64.0174 91.8582 64.3281L91.8688 64.3636L91.9184 64.4182C93.4139 66.6577 94.824 68.887 96.1489 71.0989C96.6178 71.7661 97.0777 72.432 97.5287 73.0964C103.91 82.4978 108.489 91.5877 111.239 99.6765C113.564 106.513 114.573 112.608 114.28 117.562C113.47 117.693 112.619 117.796 111.726 117.87C111.715 118.21 111.699 118.546 111.679 118.877C111.349 118.904 111.013 118.926 110.673 118.945C110.621 119.75 110.541 120.527 110.433 121.276C109.614 121.335 108.756 121.364 107.859 121.359C107.82 121.697 107.776 122.03 107.728 122.359C107.397 122.356 107.061 122.349 106.72 122.338C106.59 123.205 106.43 124.036 106.241 124.832C105.421 124.82 104.565 124.774 103.672 124.692C103.602 125.025 103.529 125.352 103.451 125.675C103.121 125.644 102.787 125.608 102.449 125.567C102.249 126.384 102.025 127.167 101.777 127.914C100.961 127.831 100.112 127.71 99.2304 127.551C99.1318 127.876 99.0299 128.196 98.9246 128.511C98.5988 128.451 98.269 128.386 97.9353 128.316C98.0414 128.002 98.1441 127.683 98.2435 127.359C97.424 127.189 96.5773 126.986 95.703 126.75C95.6042 127.072 95.5028 127.39 95.3988 127.704C95.0808 127.617 94.7596 127.527 94.4352 127.433C94.1695 128.231 93.8876 128.999 93.59 129.734C91.376 129.068 88.9762 128.139 86.3881 126.923C78.5804 123.253 69.1283 117.002 58.0052 107.629C56.1108 106.264 54.17 104.828 52.1826 103.317L51.9379 103.209C51.8447 103.112 51.7514 103.015 51.658 102.917C51.4656 102.771 51.2728 102.623 51.0795 102.475C50.6649 102.251 50.2483 102.025 49.8299 101.797C49.6576 101.641 49.485 101.483 49.312 101.326L49.0672 101.02L48.7446 100.807L48.487 100.571L48.1726 100.428C47.9691 100.293 47.7652 100.157 47.5608 100.02C47.412 99.8593 47.2629 99.6978 47.1135 99.5356L46.8963 99.2099L46.5935 98.9694C46.5291 98.899 46.4646 98.8286 46.4001 98.7581C46.3191 98.7126 46.2379 98.6671 46.1568 98.6215C45.9327 98.4427 45.708 98.2631 45.4829 98.0825C45.3486 97.9092 45.2142 97.7353 45.0796 97.5607L44.8916 97.2173L44.6109 96.9513L44.3983 96.6739L44.1136 96.4786C44.2796 96.6368 44.4454 96.7943 44.6109 96.9513C44.7674 97.1553 44.9236 97.3584 45.0796 97.5607C45.1445 97.6791 45.2094 97.7973 45.2743 97.9152L45.4829 98.0825C45.5562 98.1773 45.6296 98.2718 45.7028 98.3661C45.6159 98.3172 45.5288 98.2681 45.4417 98.2189C45.5529 98.4203 45.6639 98.6208 45.7748 98.8205C45.9735 98.9549 46.1719 99.0887 46.3697 99.2219C46.5255 99.421 46.681 99.6192 46.8362 99.8166C46.6097 99.7124 46.3826 99.6078 46.155 99.5027C46.227 99.6314 46.2989 99.7598 46.3708 99.8878C46.6819 100.062 46.9919 100.234 47.3009 100.406C47.6024 100.787 47.9028 101.165 48.2022 101.54L48.5827 101.712C49.0546 102.404 49.524 103.084 49.9909 103.754C60.1008 116.133 68.9874 124.679 76.5715 130.024C81.4495 133.462 85.8183 135.597 89.6481 136.559C89.8807 136.282 90.1089 135.994 90.3327 135.694C90.6985 135.778 91.0583 135.85 91.412 135.911C91.4676 135.833 91.5228 135.755 91.5778 135.675C91.9393 135.153 92.2879 134.602 92.6231 134.023C93.4088 134.223 94.1716 134.382 94.9114 134.501C95.119 134.205 95.3212 133.898 95.518 133.58C95.8898 133.632 96.2545 133.672 96.6122 133.702C96.6607 133.62 96.7089 133.536 96.7567 133.453C97.0714 132.901 97.3706 132.322 97.6541 131.716C98.4543 131.847 99.228 131.938 99.9753 131.992C100.156 131.68 100.331 131.356 100.499 131.022C100.874 131.041 101.241 131.05 101.6 131.048C101.641 130.962 101.682 130.875 101.722 130.787C101.988 130.21 102.235 129.607 102.465 128.978C103.273 129.039 104.052 129.063 104.801 129.051C104.954 128.724 105.1 128.387 105.239 128.039C105.614 128.026 105.98 128.002 106.338 127.97C106.371 127.88 106.404 127.79 106.437 127.699C106.651 127.101 106.845 126.478 107.019 125.832C107.829 125.822 108.607 125.778 109.353 125.701C109.477 125.362 109.593 125.013 109.7 124.655C110.073 124.609 110.436 124.554 110.789 124.49C110.814 124.397 110.839 124.305 110.864 124.211C111.033 123.567 111.178 122.899 111.298 122.206C112.107 122.126 112.881 122.015 113.62 121.873C113.712 121.525 113.795 121.169 113.869 120.803C114.235 120.725 114.59 120.64 114.936 120.547C114.948 120.482 114.959 120.417 114.97 120.351C115.077 119.725 115.16 119.079 115.219 118.412C116.016 118.262 116.775 118.083 117.495 117.878C117.558 117.522 117.612 117.159 117.656 116.787C118.015 116.677 118.362 116.559 118.699 116.435C118.708 116.34 118.717 116.244 118.725 116.148C119.189 110.506 117.604 103.38 114.121 95.474C110.634 87.5598 105.229 78.8278 98.0062 69.9616C97.0402 68.7757 96.0415 67.5872 95.0105 66.3979C93.8556 65.2469 92.6644 64.0971 91.4375 62.9504C91.3543 62.6817 91.2703 62.4127 91.1855 62.1434C90.9235 61.8622 90.6596 61.5811 90.394 61.3C90.3506 61.1929 90.3069 61.0859 90.2632 60.9787C90.0452 60.8089 89.8262 60.6391 89.6064 60.4696L89.6091 60.475ZM90.8177 62.3525C90.5836 62.061 90.3479 61.7696 90.1105 61.478C89.9449 61.144 89.7777 60.8097 89.6091 60.475C89.8725 60.7499 90.1341 61.0249 90.394 61.3C90.5368 61.6512 90.678 62.0021 90.8177 62.3525ZM90.8856 62.437L90.8315 62.3869L90.8177 62.3525L90.8856 62.437ZM91.5278 63.2427C91.6394 63.6051 91.7495 63.9669 91.8582 64.3281L91.9184 64.4182C93.2205 65.854 94.4753 67.2901 95.6824 68.7236C96.6058 69.9983 97.4971 71.2692 98.3561 72.5348C104.778 81.9968 109.402 91.1666 112.186 99.3546C114.496 106.15 115.549 112.295 115.291 117.38C114.961 117.445 114.624 117.506 114.28 117.562C114.259 117.909 114.232 118.251 114.199 118.587C113.395 118.71 112.555 118.807 111.679 118.877C111.631 119.671 111.556 120.44 111.455 121.184C111.122 121.22 110.781 121.251 110.433 121.276C110.383 121.62 110.328 121.958 110.267 122.29C109.454 122.342 108.608 122.365 107.728 122.359C107.603 123.213 107.45 124.037 107.269 124.828C106.933 124.835 106.59 124.837 106.241 124.832C106.16 125.17 106.074 125.502 105.983 125.827C105.17 125.809 104.326 125.759 103.451 125.675C103.258 126.481 103.041 127.256 102.801 128C102.466 127.978 102.124 127.949 101.777 127.914C101.667 128.244 101.553 128.567 101.434 128.883C100.625 128.794 99.7889 128.671 98.9246 128.511C98.6619 129.297 98.3784 130.05 98.0746 130.77C97.7423 130.719 97.4047 130.661 97.0618 130.595C97.3741 129.873 97.6654 129.113 97.9353 128.316C97.1139 128.143 96.2684 127.939 95.3988 127.704C95.1342 128.502 94.8533 129.271 94.5564 130.011C94.2383 129.925 93.9162 129.832 93.59 129.734C93.4627 130.049 93.3325 130.358 93.1995 130.661C90.9536 129.979 88.5411 129.04 85.9627 127.828C77.5658 123.881 67.3301 117.007 55.2242 106.572C54.1442 105.487 53.0487 104.367 51.9379 103.209C51.5836 103.053 51.228 102.896 50.871 102.738C50.5254 102.427 50.1783 102.113 49.8299 101.797C49.7473 101.752 49.6647 101.707 49.582 101.662C49.4921 101.55 49.4021 101.438 49.312 101.326C49.1233 101.154 48.9342 100.981 48.7446 100.807C48.5543 100.681 48.3637 100.555 48.1726 100.428L47.7667 100.243L47.5608 100.02L47.3385 99.8718C47.2635 99.76 47.1886 99.6479 47.1135 99.5356C46.9405 99.3477 46.7672 99.1589 46.5935 98.9694C46.4482 98.8538 46.3026 98.7378 46.1568 98.6215C46.0057 98.5366 45.8544 98.4515 45.7028 98.3661C45.9257 98.6532 46.148 98.9384 46.3697 99.2219C46.6938 99.44 47.0167 99.6567 47.3385 99.8718L47.5081 100.125C47.2846 100.022 47.0607 99.9197 46.8362 99.8166C46.9914 100.014 47.1463 100.21 47.3009 100.406C47.5123 100.523 47.7233 100.64 47.9338 100.756C48.1506 101.077 48.3669 101.396 48.5827 101.712C48.9048 101.858 49.2258 102.002 49.5457 102.146C50.558 103.219 51.5582 104.263 52.5462 105.277C61.8727 116.44 70.0958 124.237 77.1476 129.207C82.175 132.75 86.575 134.834 90.3327 135.694C90.4755 135.503 90.6165 135.307 90.7557 135.106C91.054 134.675 91.3435 134.223 91.6241 133.75C91.9611 133.848 92.2941 133.939 92.6231 134.023C92.7936 133.729 92.9608 133.427 93.1244 133.118C93.9525 133.32 94.7503 133.474 95.518 133.58C95.6436 133.377 95.767 133.169 95.8882 132.957C96.1478 132.502 96.3968 132.026 96.6351 131.531C96.9794 131.599 97.3191 131.661 97.6541 131.716C97.7983 131.407 97.9385 131.092 98.0746 130.77C98.9172 130.899 99.7254 130.983 100.499 131.022C100.607 130.809 100.712 130.591 100.814 130.369C101.033 129.893 101.239 129.398 101.434 128.883C101.783 128.921 102.126 128.953 102.465 128.978C102.582 128.659 102.694 128.332 102.801 128C103.652 128.055 104.464 128.068 105.239 128.039C105.327 127.818 105.413 127.592 105.495 127.361C105.672 126.868 105.835 126.357 105.983 125.827C106.334 125.835 106.679 125.837 107.019 125.832C107.107 125.504 107.191 125.169 107.269 124.828C108.121 124.809 108.931 124.751 109.7 124.655C109.769 124.426 109.835 124.194 109.897 123.957C110.037 123.421 110.161 122.865 110.267 122.29C110.617 122.267 110.96 122.239 111.298 122.206C111.356 121.871 111.409 121.53 111.455 121.184C112.305 121.092 113.109 120.964 113.869 120.803C113.91 120.599 113.949 120.392 113.985 120.183C114.073 119.666 114.144 119.134 114.199 118.587C114.546 118.534 114.886 118.475 115.219 118.412C115.25 118.073 115.273 117.729 115.291 117.38C116.127 117.213 116.915 117.015 117.656 116.787C117.684 116.55 117.708 116.31 117.728 116.066C118.174 110.655 116.654 103.704 113.206 95.8772C109.761 88.0589 104.407 79.4027 97.2309 70.5931C96.7238 69.9706 96.2076 69.3474 95.6824 68.7236C94.3631 66.9026 92.9782 65.074 91.5278 63.2427ZM94.168 130.942C93.8378 131.702 93.4898 132.427 93.1244 133.118C92.7979 133.038 92.4666 132.95 92.1307 132.855C92.5047 132.163 92.8613 131.431 93.1995 130.661C93.5259 130.76 93.8487 130.853 94.168 130.942ZM94.168 130.942C95.0152 131.176 95.8376 131.372 96.6351 131.531C96.7814 131.226 96.9236 130.914 97.0618 130.595C96.2563 130.441 95.4212 130.247 94.5564 130.011C94.4299 130.327 94.3004 130.637 94.168 130.942ZM92.1307 132.855C91.9652 133.161 91.7964 133.46 91.6241 133.75C88.5241 132.846 85.0854 131.323 81.315 129.131C73.2941 124.467 63.6965 116.728 52.5462 105.277C51.7768 104.357 50.9998 103.413 50.2154 102.446C50.4345 102.543 50.653 102.641 50.871 102.738C52.348 104.066 53.7991 105.344 55.2242 106.572C65.4882 116.88 74.3596 123.93 81.8177 128.267C85.6443 130.491 89.0812 131.992 92.1307 132.855ZM50.2154 102.446C49.9927 102.346 49.7695 102.246 49.5457 102.146C49.2223 101.803 48.8976 101.457 48.5717 101.108C48.9097 101.294 49.2465 101.479 49.582 101.662C49.7937 101.925 50.0048 102.186 50.2154 102.446ZM48.5717 101.108C48.3596 100.991 48.1469 100.874 47.9338 100.756C47.7921 100.547 47.6502 100.336 47.5081 100.125L47.7667 100.243C48.0359 100.533 48.3042 100.822 48.5717 101.108ZM91.5278 63.2427L91.4375 62.9504C91.2543 62.7792 91.0704 62.6081 90.8856 62.437C91.1011 62.7056 91.3151 62.9742 91.5278 63.2427ZM88.4892 59.3173C88.406 59.1206 88.3223 58.9238 88.2381 58.7269L88.2609 58.7415C88.4515 59.0497 88.6407 59.3578 88.8284 59.6656L88.6371 59.4689L88.4892 59.3173ZM88.0497 58.869C87.9302 58.7045 87.8102 58.5401 87.6898 58.3756C87.5745 58.3021 87.4591 58.2287 87.3434 58.1553L87.2707 58.0824L87.2201 58.0235L87.2292 58.0408L87.2707 58.0824L87.3213 58.1414L87.3434 58.1553C87.5801 58.3931 87.8155 58.631 88.0497 58.869ZM88.0497 58.869C88.2516 59.1467 88.4522 59.4245 88.6515 59.7021C88.5976 59.5739 88.5435 59.4456 88.4892 59.3173C88.3432 59.1678 88.1967 59.0184 88.0497 58.869Z" fill="black"/>
</g>
</svg>
